{
    "patcher": {
        "fileversion": 1,
        "appversion": {
            "major": 9,
            "minor": 1,
            "revision": 0,
            "architecture": "x64",
            "modernui": 1
        },
        "classnamespace": "box",
        "rect": [ 70.0, 136.0, 1165.0, 624.0 ],
        "default_fontname": "Helvetica Neue Light",
        "gridsize": [ 5.0, 5.0 ],
        "boxes": [
            {
                "box": {
                    "fontname": "Helvetica Neue Light",
                    "fontsize": 12.0,
                    "id": "obj-13",
                    "maxclass": "newobj",
                    "numinlets": 1,
                    "numoutlets": 1,
                    "outlettype": [ "" ],
                    "patching_rect": [ 805.0, 488.0, 146.0, 23.0 ],
                    "text": "dict.serialize @mode json"
                }
            },
            {
                "box": {
                    "id": "obj-15",
                    "maxclass": "newobj",
                    "numinlets": 1,
                    "numoutlets": 1,
                    "outlettype": [ "dictionary" ],
                    "patching_rect": [ 805.0, 454.0, 84.0, 23.0 ],
                    "text": "dict.deserialize"
                }
            },
            {
                "box": {
                    "fontname": "Helvetica Neue Light",
                    "fontsize": 12.0,
                    "id": "obj-11",
                    "maxclass": "newobj",
                    "numinlets": 1,
                    "numoutlets": 1,
                    "outlettype": [ "" ],
                    "patching_rect": [ 370.0, 488.0, 146.0, 23.0 ],
                    "text": "dict.serialize @mode json"
                }
            },
            {
                "box": {
                    "id": "obj-6",
                    "maxclass": "newobj",
                    "numinlets": 1,
                    "numoutlets": 1,
                    "outlettype": [ "dictionary" ],
                    "patching_rect": [ 370.0, 454.0, 84.0, 23.0 ],
                    "text": "dict.deserialize"
                }
            },
            {
                "box": {
                    "fontname": "Helvetica Neue Light",
                    "fontsize": 12.0,
                    "id": "obj-8",
                    "linecount": 3,
                    "maxclass": "comment",
                    "numinlets": 1,
                    "numoutlets": 0,
                    "patching_rect": [ 38.0, 475.0, 190.0, 49.0 ],
                    "text": "This JS helper compares strings without regard to whether line endings are Mac or Windows."
                }
            },
            {
                "box": {
                    "fontname": "Helvetica Neue Light",
                    "fontsize": 12.0,
                    "id": "obj-49",
                    "maxclass": "newobj",
                    "numinlets": 2,
                    "numoutlets": 1,
                    "outlettype": [ "" ],
                    "patching_rect": [ 215.0, 475.0, 99.0, 23.0 ],
                    "text": "test.string.equals"
                }
            },
            {
                "box": {
                    "fontname": "Helvetica Neue Light",
                    "fontsize": 12.0,
                    "id": "obj-21",
                    "maxclass": "newobj",
                    "numinlets": 2,
                    "numoutlets": 1,
                    "outlettype": [ "" ],
                    "patching_rect": [ 650.0, 475.0, 99.0, 23.0 ],
                    "text": "test.string.equals"
                }
            },
            {
                "box": {
                    "fontname": "Helvetica Neue Light",
                    "fontsize": 12.0,
                    "id": "obj-45",
                    "maxclass": "newobj",
                    "numinlets": 1,
                    "numoutlets": 1,
                    "outlettype": [ "bang" ],
                    "patching_rect": [ 455.0, 60.0, 59.0, 23.0 ],
                    "text": "loadbang"
                }
            },
            {
                "box": {
                    "color": [ 0.7, 0.4, 0.3, 1.0 ],
                    "fontname": "Helvetica Neue Light",
                    "fontsize": 12.0,
                    "id": "obj-24",
                    "maxclass": "newobj",
                    "numinlets": 1,
                    "numoutlets": 1,
                    "outlettype": [ "" ],
                    "patching_rect": [ 650.0, 575.0, 234.0, 23.0 ],
                    "text": "test.assert dict_assembled_with_dict.pack"
                }
            },
            {
                "box": {
                    "id": "obj-36",
                    "maxclass": "toggle",
                    "numinlets": 1,
                    "numoutlets": 1,
                    "outlettype": [ "int" ],
                    "parameter_enable": 0,
                    "patching_rect": [ 650.0, 540.0, 25.0, 25.0 ]
                }
            },
            {
                "box": {
                    "id": "obj-39",
                    "maxclass": "button",
                    "numinlets": 1,
                    "numoutlets": 1,
                    "outlettype": [ "bang" ],
                    "parameter_enable": 0,
                    "patching_rect": [ 600.0, 320.0, 20.0, 20.0 ]
                }
            },
            {
                "box": {
                    "id": "obj-40",
                    "maxclass": "button",
                    "numinlets": 1,
                    "numoutlets": 1,
                    "outlettype": [ "bang" ],
                    "parameter_enable": 0,
                    "patching_rect": [ 805.0, 320.0, 20.0, 20.0 ]
                }
            },
            {
                "box": {
                    "fontname": "Arial",
                    "fontsize": 13.0,
                    "id": "obj-41",
                    "linecount": 6,
                    "maxclass": "message",
                    "numinlets": 2,
                    "numoutlets": 1,
                    "outlettype": [ "" ],
                    "patching_rect": [ 805.0, 345.0, 200.0, 96.0 ],
                    "text": "\"{\n\t\\\"foo\\\" : \\\"man\\\",\n\t\\\"chu\\\" : 5,\n\t\\\"cat\\\" : [ \\\"on\\\", \\\"the\\\", \\\"mat\\\" ]\n}\n\""
                }
            },
            {
                "box": {
                    "fontname": "Arial",
                    "fontsize": 13.0,
                    "id": "obj-43",
                    "linecount": 5,
                    "maxclass": "message",
                    "numinlets": 2,
                    "numoutlets": 1,
                    "outlettype": [ "" ],
                    "patching_rect": [ 600.0, 345.0, 203.0, 81.0 ],
                    "text": "\"{\n    \\\"foo\\\": \\\"man\\\",\n    \\\"chu\\\": 5,\n    \\\"cat\\\": [ \\\"on\\\", \\\"the\\\", \\\"mat\\\" ]\n}\""
                }
            },
            {
                "box": {
                    "fontname": "Helvetica Neue Light",
                    "fontsize": 12.0,
                    "id": "obj-44",
                    "maxclass": "newobj",
                    "numinlets": 1,
                    "numoutlets": 1,
                    "outlettype": [ "" ],
                    "patching_rect": [ 600.0, 265.0, 146.0, 23.0 ],
                    "text": "dict.serialize @mode json"
                }
            },
            {
                "box": {
                    "id": "obj-17",
                    "maxclass": "button",
                    "numinlets": 1,
                    "numoutlets": 1,
                    "outlettype": [ "bang" ],
                    "parameter_enable": 0,
                    "patching_rect": [ 20.0, 105.0, 20.0, 20.0 ]
                }
            },
            {
                "box": {
                    "color": [ 0.7, 0.4, 0.3, 1.0 ],
                    "fontname": "Helvetica Neue Light",
                    "fontsize": 12.0,
                    "id": "obj-14",
                    "maxclass": "newobj",
                    "numinlets": 1,
                    "numoutlets": 0,
                    "patching_rect": [ 25.0, 575.0, 81.0, 23.0 ],
                    "text": "test.terminate"
                }
            },
            {
                "box": {
                    "color": [ 0.7, 0.4, 0.3, 1.0 ],
                    "fontname": "Helvetica Neue Light",
                    "fontsize": 12.0,
                    "id": "obj-35",
                    "maxclass": "newobj",
                    "numinlets": 1,
                    "numoutlets": 1,
                    "outlettype": [ "" ],
                    "patching_rect": [ 215.0, 575.0, 238.0, 23.0 ],
                    "text": "test.assert dict_assembled_with_dict.group"
                }
            },
            {
                "box": {
                    "id": "obj-16",
                    "maxclass": "toggle",
                    "numinlets": 1,
                    "numoutlets": 1,
                    "outlettype": [ "int" ],
                    "parameter_enable": 0,
                    "patching_rect": [ 215.0, 540.0, 25.0, 25.0 ]
                }
            },
            {
                "box": {
                    "id": "obj-12",
                    "maxclass": "button",
                    "numinlets": 1,
                    "numoutlets": 1,
                    "outlettype": [ "bang" ],
                    "parameter_enable": 0,
                    "patching_rect": [ 165.0, 320.0, 20.0, 20.0 ]
                }
            },
            {
                "box": {
                    "id": "obj-7",
                    "maxclass": "button",
                    "numinlets": 1,
                    "numoutlets": 1,
                    "outlettype": [ "bang" ],
                    "parameter_enable": 0,
                    "patching_rect": [ 370.0, 320.0, 20.0, 20.0 ]
                }
            },
            {
                "box": {
                    "fontname": "Arial",
                    "fontsize": 13.0,
                    "id": "obj-32",
                    "linecount": 6,
                    "maxclass": "message",
                    "numinlets": 2,
                    "numoutlets": 1,
                    "outlettype": [ "" ],
                    "patching_rect": [ 370.0, 345.0, 200.0, 96.0 ],
                    "text": "\"{\n\t\\\"foo\\\" : \\\"man\\\",\n\t\\\"chu\\\" : 5,\n\t\\\"cat\\\" : [ \\\"on\\\", \\\"the\\\", \\\"mat\\\" ]\n}\n\""
                }
            },
            {
                "box": {
                    "fontname": "Arial",
                    "fontsize": 13.0,
                    "id": "obj-5",
                    "linecount": 5,
                    "maxclass": "message",
                    "numinlets": 2,
                    "numoutlets": 1,
                    "outlettype": [ "" ],
                    "patching_rect": [ 165.0, 345.0, 201.0, 81.0 ],
                    "text": "\"{\n    \\\"foo\\\": \\\"man\\\",\n    \\\"chu\\\": 5,\n    \\\"cat\\\": [ \\\"on\\\", \\\"the\\\", \\\"mat\\\" ]\n}\""
                }
            },
            {
                "box": {
                    "fontname": "Helvetica Neue Light",
                    "fontsize": 12.0,
                    "id": "obj-2",
                    "maxclass": "newobj",
                    "numinlets": 1,
                    "numoutlets": 1,
                    "outlettype": [ "" ],
                    "patching_rect": [ 165.0, 265.0, 146.0, 23.0 ],
                    "text": "dict.serialize @mode json"
                }
            },
            {
                "box": {
                    "fontname": "Arial",
                    "fontsize": 13.0,
                    "id": "obj-34",
                    "maxclass": "newobj",
                    "numinlets": 1,
                    "numoutlets": 4,
                    "outlettype": [ "bang", "bang", "bang", "bang" ],
                    "patching_rect": [ 600.0, 130.0, 131.5, 23.0 ],
                    "text": "t b b b b"
                }
            },
            {
                "box": {
                    "fontname": "Arial",
                    "fontsize": 13.0,
                    "id": "obj-33",
                    "maxclass": "message",
                    "numinlets": 2,
                    "numoutlets": 1,
                    "outlettype": [ "" ],
                    "patching_rect": [ 654.75, 165.0, 32.5, 23.0 ],
                    "text": "5"
                }
            },
            {
                "box": {
                    "fontname": "Arial",
                    "fontsize": 13.0,
                    "id": "obj-31",
                    "maxclass": "message",
                    "numinlets": 2,
                    "numoutlets": 1,
                    "outlettype": [ "" ],
                    "patching_rect": [ 713.0, 165.0, 72.0, 23.0 ],
                    "text": "on the mat"
                }
            },
            {
                "box": {
                    "fontname": "Arial",
                    "fontsize": 13.0,
                    "id": "obj-26",
                    "maxclass": "newobj",
                    "numinlets": 4,
                    "numoutlets": 1,
                    "outlettype": [ "dictionary" ],
                    "patching_rect": [ 600.0, 195.0, 211.0, 23.0 ],
                    "text": "dict.pack foo: chu: cat: @triggers 2"
                }
            },
            {
                "box": {
                    "id": "obj-27",
                    "maxclass": "button",
                    "numinlets": 1,
                    "numoutlets": 1,
                    "outlettype": [ "bang" ],
                    "parameter_enable": 0,
                    "patching_rect": [ 600.0, 105.0, 20.0, 20.0 ]
                }
            },
            {
                "box": {
                    "fontname": "Arial",
                    "fontsize": 13.0,
                    "id": "obj-28",
                    "maxclass": "message",
                    "numinlets": 2,
                    "numoutlets": 1,
                    "outlettype": [ "" ],
                    "patching_rect": [ 600.0, 165.0, 36.0, 23.0 ],
                    "text": "man"
                }
            },
            {
                "box": {
                    "fontname": "Arial",
                    "fontsize": 13.0,
                    "id": "obj-29",
                    "maxclass": "message",
                    "numinlets": 2,
                    "numoutlets": 1,
                    "outlettype": [ "" ],
                    "patching_rect": [ 892.0, 165.0, 39.0, 23.0 ],
                    "text": "clear"
                }
            },
            {
                "box": {
                    "fontname": "Arial",
                    "fontsize": 13.0,
                    "id": "obj-30",
                    "maxclass": "newobj",
                    "numinlets": 2,
                    "numoutlets": 5,
                    "outlettype": [ "dictionary", "", "", "", "" ],
                    "patching_rect": [ 600.0, 235.0, 59.5, 23.0 ],
                    "saved_object_attributes": {
                        "legacy": 1,
                        "parameter_enable": 0,
                        "parameter_mappable": 0
                    },
                    "text": "dict"
                }
            },
            {
                "box": {
                    "fontname": "Arial",
                    "fontsize": 13.0,
                    "id": "obj-4",
                    "maxclass": "newobj",
                    "numinlets": 1,
                    "numoutlets": 1,
                    "outlettype": [ "dictionary" ],
                    "patching_rect": [ 165.0, 195.0, 68.0, 23.0 ],
                    "text": "dict.group"
                }
            },
            {
                "box": {
                    "id": "obj-3",
                    "maxclass": "button",
                    "numinlets": 1,
                    "numoutlets": 1,
                    "outlettype": [ "bang" ],
                    "parameter_enable": 0,
                    "patching_rect": [ 213.0, 105.0, 20.0, 20.0 ]
                }
            },
            {
                "box": {
                    "fontname": "Arial",
                    "fontsize": 13.0,
                    "id": "obj-9",
                    "maxclass": "message",
                    "numinlets": 2,
                    "numoutlets": 1,
                    "outlettype": [ "" ],
                    "patching_rect": [ 165.0, 165.0, 230.0, 23.0 ],
                    "text": "foo man, chu 5, cat : on the mat, bang"
                }
            },
            {
                "box": {
                    "fontname": "Arial",
                    "fontsize": 13.0,
                    "id": "obj-10",
                    "maxclass": "message",
                    "numinlets": 2,
                    "numoutlets": 1,
                    "outlettype": [ "" ],
                    "patching_rect": [ 405.0, 165.0, 39.0, 23.0 ],
                    "text": "clear"
                }
            },
            {
                "box": {
                    "fontname": "Arial",
                    "fontsize": 13.0,
                    "id": "obj-1",
                    "maxclass": "newobj",
                    "numinlets": 2,
                    "numoutlets": 5,
                    "outlettype": [ "dictionary", "", "", "", "" ],
                    "patching_rect": [ 165.0, 235.0, 59.5, 23.0 ],
                    "saved_object_attributes": {
                        "legacy": 1,
                        "parameter_enable": 0,
                        "parameter_mappable": 0
                    },
                    "text": "dict"
                }
            }
        ],
        "lines": [
            {
                "patchline": {
                    "destination": [ "obj-2", 0 ],
                    "source": [ "obj-1", 0 ]
                }
            },
            {
                "patchline": {
                    "destination": [ "obj-1", 0 ],
                    "source": [ "obj-10", 0 ]
                }
            },
            {
                "patchline": {
                    "destination": [ "obj-49", 1 ],
                    "source": [ "obj-11", 0 ]
                }
            },
            {
                "patchline": {
                    "destination": [ "obj-5", 0 ],
                    "source": [ "obj-12", 0 ]
                }
            },
            {
                "patchline": {
                    "destination": [ "obj-21", 1 ],
                    "source": [ "obj-13", 0 ]
                }
            },
            {
                "patchline": {
                    "destination": [ "obj-13", 0 ],
                    "source": [ "obj-15", 0 ]
                }
            },
            {
                "patchline": {
                    "destination": [ "obj-35", 0 ],
                    "source": [ "obj-16", 0 ]
                }
            },
            {
                "patchline": {
                    "destination": [ "obj-14", 0 ],
                    "source": [ "obj-17", 0 ]
                }
            },
            {
                "patchline": {
                    "destination": [ "obj-12", 0 ],
                    "order": 2,
                    "source": [ "obj-2", 0 ]
                }
            },
            {
                "patchline": {
                    "destination": [ "obj-5", 1 ],
                    "order": 1,
                    "source": [ "obj-2", 0 ]
                }
            },
            {
                "patchline": {
                    "destination": [ "obj-7", 0 ],
                    "order": 0,
                    "source": [ "obj-2", 0 ]
                }
            },
            {
                "patchline": {
                    "destination": [ "obj-36", 0 ],
                    "source": [ "obj-21", 0 ]
                }
            },
            {
                "patchline": {
                    "destination": [ "obj-30", 0 ],
                    "source": [ "obj-26", 0 ]
                }
            },
            {
                "patchline": {
                    "destination": [ "obj-34", 0 ],
                    "source": [ "obj-27", 0 ]
                }
            },
            {
                "patchline": {
                    "destination": [ "obj-26", 0 ],
                    "source": [ "obj-28", 0 ]
                }
            },
            {
                "patchline": {
                    "destination": [ "obj-30", 0 ],
                    "source": [ "obj-29", 0 ]
                }
            },
            {
                "patchline": {
                    "destination": [ "obj-10", 0 ],
                    "order": 0,
                    "source": [ "obj-3", 0 ]
                }
            },
            {
                "patchline": {
                    "destination": [ "obj-9", 0 ],
                    "order": 1,
                    "source": [ "obj-3", 0 ]
                }
            },
            {
                "patchline": {
                    "destination": [ "obj-44", 0 ],
                    "source": [ "obj-30", 0 ]
                }
            },
            {
                "patchline": {
                    "destination": [ "obj-26", 2 ],
                    "source": [ "obj-31", 0 ]
                }
            },
            {
                "patchline": {
                    "destination": [ "obj-6", 0 ],
                    "source": [ "obj-32", 0 ]
                }
            },
            {
                "patchline": {
                    "destination": [ "obj-26", 1 ],
                    "source": [ "obj-33", 0 ]
                }
            },
            {
                "patchline": {
                    "destination": [ "obj-28", 0 ],
                    "source": [ "obj-34", 2 ]
                }
            },
            {
                "patchline": {
                    "destination": [ "obj-29", 0 ],
                    "source": [ "obj-34", 3 ]
                }
            },
            {
                "patchline": {
                    "destination": [ "obj-31", 0 ],
                    "source": [ "obj-34", 0 ]
                }
            },
            {
                "patchline": {
                    "destination": [ "obj-33", 0 ],
                    "source": [ "obj-34", 1 ]
                }
            },
            {
                "patchline": {
                    "destination": [ "obj-24", 0 ],
                    "source": [ "obj-36", 0 ]
                }
            },
            {
                "patchline": {
                    "destination": [ "obj-43", 0 ],
                    "source": [ "obj-39", 0 ]
                }
            },
            {
                "patchline": {
                    "destination": [ "obj-1", 0 ],
                    "source": [ "obj-4", 0 ]
                }
            },
            {
                "patchline": {
                    "destination": [ "obj-41", 0 ],
                    "source": [ "obj-40", 0 ]
                }
            },
            {
                "patchline": {
                    "destination": [ "obj-15", 0 ],
                    "source": [ "obj-41", 0 ]
                }
            },
            {
                "patchline": {
                    "destination": [ "obj-21", 0 ],
                    "source": [ "obj-43", 0 ]
                }
            },
            {
                "patchline": {
                    "destination": [ "obj-39", 0 ],
                    "order": 2,
                    "source": [ "obj-44", 0 ]
                }
            },
            {
                "patchline": {
                    "destination": [ "obj-40", 0 ],
                    "order": 0,
                    "source": [ "obj-44", 0 ]
                }
            },
            {
                "patchline": {
                    "destination": [ "obj-43", 1 ],
                    "order": 1,
                    "source": [ "obj-44", 0 ]
                }
            },
            {
                "patchline": {
                    "destination": [ "obj-17", 0 ],
                    "order": 2,
                    "source": [ "obj-45", 0 ]
                }
            },
            {
                "patchline": {
                    "destination": [ "obj-27", 0 ],
                    "order": 0,
                    "source": [ "obj-45", 0 ]
                }
            },
            {
                "patchline": {
                    "destination": [ "obj-3", 0 ],
                    "order": 1,
                    "source": [ "obj-45", 0 ]
                }
            },
            {
                "patchline": {
                    "destination": [ "obj-16", 0 ],
                    "source": [ "obj-49", 0 ]
                }
            },
            {
                "patchline": {
                    "destination": [ "obj-49", 0 ],
                    "source": [ "obj-5", 0 ]
                }
            },
            {
                "patchline": {
                    "destination": [ "obj-11", 0 ],
                    "source": [ "obj-6", 0 ]
                }
            },
            {
                "patchline": {
                    "destination": [ "obj-32", 0 ],
                    "source": [ "obj-7", 0 ]
                }
            },
            {
                "patchline": {
                    "destination": [ "obj-4", 0 ],
                    "source": [ "obj-9", 0 ]
                }
            }
        ],
        "dependency_cache": [
            {
                "name": "test.assert.mxo",
                "type": "iLaX"
            },
            {
                "name": "test.string.equals.js",
                "bootpath": "Package:/sampler/misc",
                "patcherrelativepath": "../misc",
                "type": "TEXT",
                "implicit": 1
            },
            {
                "name": "test.string.equals.maxpat",
                "bootpath": "Package:/sampler/misc",
                "patcherrelativepath": "../misc",
                "type": "JSON",
                "implicit": 1
            },
            {
                "name": "test.terminate.mxo",
                "type": "iLaX"
            }
        ],
        "autosave": 0
    }
}